<svg xmlns="http://www.w3.org/2000/svg" viewBox="0 0 512 512">
  <rect width="512" height="512" fill="#0A0A0C"/>
  <path d="M 293.80,256.00 L 315.40,145.80 L 256.00,66.00 L 196.60,145.80 L 218.20,256.00 Z" fill="#7C5CFF"/><path d="M 267.68,291.95 L 379.16,278.44 L 436.70,197.29 L 342.45,165.45 L 244.32,220.05 Z" fill="#5A4099"/><path d="M 225.42,278.22 L 272.72,380.07 L 367.68,409.71 L 368.83,310.24 L 286.58,233.78 Z" fill="#7C5CFF"/><path d="M 225.42,233.78 L 143.17,310.24 L 144.32,409.71 L 239.28,380.07 L 286.58,278.22 Z" fill="#5A4099"/><path d="M 267.68,220.05 L 169.55,165.45 L 75.30,197.29 L 132.84,278.44 L 244.32,291.95 Z" fill="#7C5CFF"/>
  <path d="M 256.0,226.0 L 286.0,256.0 L 256.0,286.0 L 226.0,256.0 Z" fill="#0A0A0C"/>
</svg>